<?xml version="1.0" encoding="UTF-8" standalone="no"?>
<!DOCTYPE svg PUBLIC "-//W3C//DTD SVG 1.1//EN" "http://www.w3.org/Graphics/SVG/1.1/DTD/svg11.dtd">
<svg xmlns="http://www.w3.org/2000/svg" xmlns:xlink="http://www.w3.org/1999/xlink" xmlns:ev="http://www.w3.org/2001/xml-events"
		width="8.5in" height="11in" viewBox="0 0 612 792" xml:space="preserve" color-interpolation-filters="sRGB" class="st15">
	<style type="text/css">
	<![CDATA[
		.st1 {marker-end:url(#mrkr1-6);stroke:#000000;stroke-linecap:round;stroke-linejoin:round;stroke-width:1}
		.st2 {fill:#000000;fill-opacity:1;stroke:#000000;stroke-opacity:1;stroke-width:0.28409090909091}
		.st3 {fill:#ffffff;stroke:none;stroke-linecap:butt;stroke-width:7.2}
		.st4 {fill:#000000;font-family:Calibri;font-size:0.666664em}
		.st5 {fill:#feffff;stroke:#000000;stroke-linecap:butt;stroke-width:1}
		.st6 {fill:#000000;font-family:Calibri;font-size:0.666664em;font-weight:bold}
		.st7 {fill:#ffffff;stroke:#000000;stroke-dasharray:3,3;stroke-linecap:round;stroke-linejoin:round;stroke-width:1}
		.st8 {marker-end:url(#mrkr1-6);stroke:#000000;stroke-dasharray:3,3;stroke-linecap:round;stroke-linejoin:round;stroke-width:1}
		.st9 {visibility:visible}
		.st10 {fill:#5b9bd5;fill-opacity:0.22;filter:url(#filter_2);stroke:#5b9bd5;stroke-opacity:0.22}
		.st11 {fill:#7ddbff;stroke:#000000;stroke-width:1}
		.st12 {fill:#ffffff;stroke:#000000;stroke-width:1}
		.st13 {fill:#000000;font-family:Calibri;font-size:0.666664em;font-style:italic;font-weight:bold}
		.st14 {font-size:1em;font-style:normal}
		.st15 {fill:none;fill-rule:evenodd;font-size:12px;overflow:visible;stroke-linecap:square;stroke-miterlimit:3}
	]]>
	</style>

	<defs id="Markers">
		<g id="lend1">
			<path d="M 1 -1 L 0 0 L 1 1 " style="stroke-linecap:round;stroke-linejoin:round;fill:none"/>
		</g>
		<marker id="mrkr1-6" class="st2" orient="auto" markerUnits="strokeWidth" overflow="visible">
			<use xlink:href="#lend1" transform="scale(-3.52,-3.52) "/>
		</marker>
	</defs>
	<defs id="Filters">
		<filter id="filter_2">
			<feGaussianBlur stdDeviation="2"/>
		</filter>
	</defs>
	<g>
		<title>Page-1</title>
		<g id="shape64-1" transform="translate(266.062,-541.25)">
			<title>Dynamic connector</title>
			<desc>3/6</desc>
			<path d="M0.56 792 L17.44 792 L17.44 734.37" class="st1"/>
			<rect x="11.8378" y="766.825" width="11.1995" height="9.59985" class="st3"/>
			<text x="11.84" y="774.03" class="st4">3/6</text>		</g>
		<g id="shape93-9" transform="translate(230.062,-610.75)">
			<title>Dynamic connector.99</title>
			<desc>2/5/8</desc>
			<path d="M-0.56 792 L-17.44 792 L-17.44 849.63" class="st1"/>
			<rect x="-26.6097" y="807.575" width="18.3441" height="9.59985" class="st3"/>
			<text x="-26.61" y="814.78" class="st4">2/5/8</text>		</g>
		<g id="shape97-16" transform="translate(229.5,-598.875)">
			<title>External interactor.138</title>
			<desc>KubernetesApiServer</desc>
			<rect x="0" y="768.25" width="108" height="23.75" class="st5"/>
			<text x="18.72" y="782.52" class="st6">KubernetesApiServer</text>		</g>
		<g id="shape106-19" transform="translate(229.5,-668.375)">
			<title>External interactor.106</title>
			<desc>KubernetesClient</desc>
			<path d="M0 792 L108 792 L108 768.25 L0 768.25 L0 792 Z" class="st7"/>
			<text x="25.3" y="782.52" class="st6">KubernetesClient</text>		</g>
		<g id="shape107-22" transform="translate(274.5,-668.375)">
			<title>Dynamic connector.107</title>
			<desc>0</desc>
			<path d="M9 792 L9 837.75" class="st1"/>
			<rect x="6.97253" y="810.075" width="4.05478" height="9.59985" class="st3"/>
			<text x="6.97" y="817.28" class="st4">0</text>		</g>
		<g id="shape111-29" transform="translate(66.6,-483.625)">
			<title>Dynamic connector.111</title>
			<path d="M9 792 L9 746.25" class="st8"/>
		</g>
		<g id="shape112-34" transform="translate(212.625,-483.625)">
			<title>Dynamic connector.112</title>
			<path d="M0 792 L0 774 L-137.02 774 L-137.02 746.25" class="st8"/>
		</g>
		<g id="shape113-39" transform="translate(337.5,-610.75)">
			<title>Dynamic connector.113</title>
			<path d="M0 792 L18 792 L18 960.88 L-261.9 960.88 L-261.9 942.88" class="st1"/>
		</g>
		<g id="shape114-44" transform="translate(337.5,-610.75)">
			<title>Dynamic connector.114</title>
			<desc>7</desc>
			<path d="M0 792 L18 792 L18 960.88 L-124.88 960.88 L-124.88 942.88" class="st1"/>
			<rect x="15.9725" y="943.075" width="4.05478" height="9.59985" class="st3"/>
			<text x="15.97" y="950.28" class="st4">7</text>		</g>
		<g id="shape128-51" transform="translate(158.625,-529.375)">
			<title>External interactor.128</title>
			<desc>FrameworkController</desc>
			<g id="shadow128-52" transform="matrix(1,0,0,1,0.345598,1.97279)" class="st9">
				<rect x="0" y="768.25" width="108" height="23.75" class="st10"/>
			</g>
			<rect x="0" y="768.25" width="108" height="23.75" class="st11"/>
			<text x="18.25" y="782.52" class="st6">FrameworkController</text>		</g>
		<g id="shape130-57" transform="translate(158.625,-459.875)">
			<title>External interactor.130</title>
			<desc>[PodObject] TaskAttemptInstance</desc>
			<g id="shadow130-58" transform="matrix(1,0,0,1,0.345598,1.97279)" class="st9">
				<rect x="0" y="768.25" width="108" height="23.75" rx="11.875" ry="11.875" class="st10"/>
			</g>
			<rect x="0" y="768.25" width="108" height="23.75" rx="11.875" ry="11.875" class="st12"/>
			<text x="34.25" y="777.72" class="st13">[PodObject] <tspan x="18.53" dy="1.2em" class="st14">TaskAttemptInstance</tspan></text>		</g>
		<g id="shape133-64" transform="translate(21.6,-459.875)">
			<title>External interactor.133</title>
			<desc>[PodObject] TaskAttemptInstance</desc>
			<g id="shadow133-65" transform="matrix(1,0,0,1,0.345598,1.97279)" class="st9">
				<rect x="0" y="768.25" width="108" height="23.75" rx="11.875" ry="11.875" class="st10"/>
			</g>
			<rect x="0" y="768.25" width="108" height="23.75" rx="11.875" ry="11.875" class="st12"/>
			<text x="34.25" y="777.72" class="st13">[PodObject] <tspan x="18.53" dy="1.2em" class="st14">TaskAttemptInstance</tspan></text>		</g>
		<g id="shape137-71" transform="translate(229.5,-601.75)">
			<title>Dynamic connector.137</title>
			<desc>1</desc>
			<path d="M0 783 L-99.9 783" class="st1"/>
			<rect x="-51.9775" y="778.2" width="4.05478" height="9.59985" class="st3"/>
			<text x="-51.98" y="785.4" class="st4">1</text>		</g>
		<g id="shape144-78" transform="translate(229.5,-610.75)">
			<title>Dynamic connector.144</title>
			<desc>4</desc>
			<path d="M0 792 L-40.5 792 L-40.5 824.5 L-143.1 824.5 L-143.1 849.63" class="st1"/>
			<rect x="-69.89" y="819.7" width="4.05478" height="9.59985" class="st3"/>
			<text x="-69.89" y="826.9" class="st4">4</text>		</g>
		<g id="shape147-85" transform="translate(21.6,-529.375)">
			<title>External interactor.147</title>
			<desc>[ConfigMapObject] FrameworkAttemptInstance</desc>
			<g id="shadow147-86" transform="matrix(1,0,0,1,0.345598,1.97279)" class="st9">
				<rect x="0" y="768.25" width="108" height="23.75" rx="11.875" ry="11.875" class="st10"/>
			</g>
			<rect x="0" y="768.25" width="108" height="23.75" rx="11.875" ry="11.875" class="st12"/>
			<text x="22.23" y="777.72" class="st13">[ConfigMapObject] <tspan x="7.03" dy="1.2em" class="st14">FrameworkAttemptInstance</tspan></text>		</g>
		<g id="shape149-92" transform="translate(21.6,-598.875)">
			<title>External interactor.149</title>
			<desc>[FrameworkObject] FrameworkInstance</desc>
			<g id="shadow149-93" transform="matrix(1,0,0,1,0.345598,1.97279)" class="st9">
				<rect x="0" y="768.25" width="108" height="23.75" rx="11.875" ry="11.875" class="st10"/>
			</g>
			<rect x="0" y="768.25" width="108" height="23.75" rx="11.875" ry="11.875" class="st12"/>
			<text x="21.64" y="777.72" class="st13">[FrameworkObject] <tspan x="21.02" dy="1.2em" class="st14">FrameworkInstance</tspan></text>		</g>
		<g id="shape151-99" transform="translate(66.6,-553.125)">
			<title>Dynamic connector.151</title>
			<path d="M9 792 L9 746.25" class="st8"/>
		</g>
	</g>
</svg>
